#N canvas 1211 564 406 426 12;
#X obj 212 95 hsl 128 15 0 1 0 0 empty empty empty -2 -8 0 10 #fcfcfc
#000000 #000000 0 1;
#X floatatom 157 96 5 0 0 0 - - - 0;
#X floatatom 157 182 5 0 0 0 - - - 0;
#X obj 157 124 - 1;
#X obj 157 153 * -1;
#X obj 160 210 hsl 128 15 0 1 0 0 empty empty empty -2 -8 0 10 #fcfcfc
#000000 #000000 0 1;
#X obj 209 154 line;
#X floatatom 209 183 5 0 0 0 - - - 0;
#X msg 209 125 \$1 300;
#X obj 338 143 vsl 16 50 0 1 0 0 empty empty empty 0 -9 0 10 #fcfcfc
#000000 #000000 0 1;
#X floatatom 338 207 5 0 0 0 - - - 0;
#X text 358 135 wet;
#X text 358 182 dry;
#X obj 22 32 inlet~;
#X obj 88 32 inlet~;
#X text 43 12 au1;
#X text 109 11 au2;
#X obj 154 32 inlet;
#X text 197 32 dry/wet control;
#X obj 20 391 outlet~;
#X obj 93 391 outlet~;
#X obj 166 391 outlet~;
#X text 48 370 mix;
#X text 120 370 dry;
#X text 194 370 wet;
#X obj 22 255 *~;
#X obj 88 254 *~;
#X obj 259 390 outlet;
#X obj 317 390 outlet;
#X text 317 367 invert;
#X text 272 369 thru;
#X obj 339 36 loadbang;
#X msg 339 60 1;
#X connect 0 0 8 0;
#X connect 1 0 3 0;
#X connect 2 0 5 0;
#X connect 2 0 25 1;
#X connect 2 0 27 0;
#X connect 3 0 4 0;
#X connect 4 0 2 0;
#X connect 6 0 7 0;
#X connect 7 0 1 0;
#X connect 7 0 26 1;
#X connect 7 0 28 0;
#X connect 8 0 6 0;
#X connect 9 0 10 0;
#X connect 10 0 0 0;
#X connect 13 0 25 0;
#X connect 13 0 20 0;
#X connect 14 0 26 0;
#X connect 14 0 21 0;
#X connect 17 0 9 0;
#X connect 25 0 19 0;
#X connect 26 0 19 0;
#X connect 31 0 32 0;
#X connect 32 0 9 0;
#X coords 0 -1 1 1 85 130 1 315 110;
