#N canvas 322 23 958 300 12;
#X obj 46 196 outlet~;
#X obj 46 141 tabplay~ \$0-sample;
#X obj 46 61 inlet;
#X obj 46 84 sel 1 0;
#X msg 69 108 stop;
#X obj 169 166 b;
#N canvas 0 0 450 300 (subpatch) 0;
#X array \$0-sample 205312 float 0;
#X coords 0 1 205311 -1 400 150 1;
#X restore 502 48 graph;
#X obj 262 188 soundfiler;
#X obj 262 49 inlet;
#X obj 262 97 openpanel;
#X obj 262 140 pack s \$0;
#X msg 262 164 read -resize \$1 \$2-sample;
#X obj 262 72 route bang;
#X connect 1 0 0 0;
#X connect 1 1 5 0;
#X connect 2 0 3 0;
#X connect 3 0 1 0;
#X connect 3 1 4 0;
#X connect 4 0 1 0;
#X connect 5 0 1 0;
#X connect 8 0 12 0;
#X connect 9 0 10 0;
#X connect 10 0 11 0;
#X connect 11 0 7 0;
#X connect 12 0 9 0;
#X connect 12 1 10 0;
