#N canvas 1832 25 1082 1278 12;
#X obj 39 35 inlet;
#X obj 21 346 phasor~ 220;
#X obj 21 433 *~;
#X obj 97 521 *~;
#X obj 173 609 *~;
#X obj 249 697 *~;
#X obj 295 333 else/pan4~, f 19;
#X obj 360 303 else/f2s~ 10;
#X obj 458 303 else/f2s~ 10;
#X obj 295 304 sig~ 1;
#X obj 21 375 expr~ $v1*size("waveform001");
#X obj 97 463 expr~ $v1*size("waveform002");
#X obj 173 551 expr~ $v1*size("waveform003");
#X obj 249 639 expr~ $v1*size("waveform004");
#X obj 21 404 tabread4~ waveform001;
#X obj 97 492 tabread4~ waveform002;
#X obj 173 580 tabread4~ waveform003;
#X obj 249 668 tabread4~ waveform004;
#X floatatom 21 258 5 0 0 0 - - -;
#X floatatom 74 258 5 0 0 0 - - -;
#X obj 21 289 mtof;
#X floatatom 21 318 5 0 0 0 - - -;
#X floatatom 585 469 5 0 0 0 - - -;
#X obj 539 439 moses 1;
#X obj 627 471 bng 15 250 50 0 empty empty empty 17 7 0 10 -262144
-1 -1;
#X floatatom 585 526 5 0 0 0 - - -;
#X floatatom 695 418 5 0 0 0 - - -;
#X obj 695 247 vsl 15 128 20 1000 0 0 empty empty empty 0 -9 0 10 -262144
-1 -1 1114 1;
#X floatatom 752 418 5 0 0 0 - - -;
#X obj 752 247 vsl 15 128 20 1000 0 0 empty empty empty 0 -9 0 10 -262144
-1 -1 1801 1;
#X floatatom 998 562 5 0 0 0 - - -;
#X obj 809 247 vsl 15 128 0 1 0 0 empty empty empty 0 -9 0 10 -262144
-1 -1 3200 1;
#X floatatom 866 418 5 0 0 0 - - -;
#X obj 866 247 vsl 15 128 0 1000 0 0 empty empty empty 0 -9 0 10 -262144
-1 -1 9093 1;
#X text 696 218 a;
#X text 753 217 d;
#X obj 695 383 i;
#X obj 752 383 i;
#X obj 866 383 i;
#X floatatom 923 418 5 0 0 0 - - -;
#X obj 923 247 vsl 15 128 20 1000 0 0 empty empty empty 0 -9 0 10 -262144
-1 -1 8022 1;
#X text 923 218 r;
#X obj 923 383 i;
#X text 854 214 sTime;
#X text 792 216 sLevel;
#X obj 998 590 *;
#X floatatom 998 614 5 0 0 0 - - -;
#X obj 585 497 / 127;
#X obj 602 439 t b b;
#X obj 695 446 +;
#X obj 585 615 vline~;
#X obj 97 689 *~;
#X obj 30 815 outlet~;
#X obj 325 90 unpack f f f f f f f f f;
#X floatatom 341 163 5 0 0 0 - - -;
#X floatatom 388 163 5 0 0 0 - - -;
#X obj 21 462 *~ 1;
#X obj 97 550 *~ 1;
#X obj 173 638 *~ 1;
#X obj 249 726 *~ 1;
#X obj 584 735 - 100;
#X obj 650 632 vu 15 120 empty empty -1 -8 0 10 -66577 -1 1 0;
#X obj 584 706 env~;
#X obj 708 481 +;
#X obj 585 557 pack f f f f f f f f;
#X msg 585 586 \$1 \$2 \, \$3 \$4 \$2 \, \$3 \$5 \$6 \, 0 \$7 \$8;
#X floatatom 784 541 5 0 0 0 - - -;
#X connect 0 0 53 0;
#X connect 1 0 10 0;
#X connect 1 0 11 0;
#X connect 1 0 12 0;
#X connect 1 0 13 0;
#X connect 2 0 56 0;
#X connect 3 0 57 0;
#X connect 4 0 58 0;
#X connect 5 0 59 0;
#X connect 6 0 2 1;
#X connect 6 1 3 1;
#X connect 6 2 4 1;
#X connect 6 3 5 1;
#X connect 7 0 6 1;
#X connect 8 0 6 2;
#X connect 9 0 6 0;
#X connect 10 0 14 0;
#X connect 11 0 15 0;
#X connect 12 0 16 0;
#X connect 13 0 17 0;
#X connect 14 0 2 0;
#X connect 15 0 3 0;
#X connect 16 0 4 0;
#X connect 17 0 5 0;
#X connect 18 0 20 0;
#X connect 19 0 23 0;
#X connect 20 0 21 0;
#X connect 21 0 1 0;
#X connect 22 0 47 0;
#X connect 23 1 22 0;
#X connect 23 1 24 0;
#X connect 23 1 48 0;
#X connect 25 0 45 1;
#X connect 25 0 64 0;
#X connect 26 0 49 0;
#X connect 26 0 64 1;
#X connect 27 0 36 0;
#X connect 28 0 49 1;
#X connect 28 0 64 3;
#X connect 29 0 37 0;
#X connect 30 0 45 0;
#X connect 31 0 30 0;
#X connect 32 0 64 4;
#X connect 32 0 63 1;
#X connect 33 0 38 0;
#X connect 36 0 26 0;
#X connect 37 0 28 0;
#X connect 38 0 32 0;
#X connect 39 0 64 6;
#X connect 40 0 42 0;
#X connect 42 0 39 0;
#X connect 45 0 46 0;
#X connect 46 0 64 2;
#X connect 47 0 25 0;
#X connect 48 0 26 0;
#X connect 48 1 28 0;
#X connect 48 1 30 0;
#X connect 48 1 32 0;
#X connect 49 0 63 0;
#X connect 49 0 64 5;
#X connect 50 0 51 1;
#X connect 50 0 62 0;
#X connect 51 0 52 0;
#X connect 53 0 18 0;
#X connect 53 1 19 0;
#X connect 53 2 7 0;
#X connect 53 2 54 0;
#X connect 53 3 8 0;
#X connect 53 3 55 0;
#X connect 53 4 27 0;
#X connect 53 5 29 0;
#X connect 53 6 31 0;
#X connect 53 7 33 0;
#X connect 53 8 40 0;
#X connect 56 0 51 0;
#X connect 57 0 51 0;
#X connect 58 0 51 0;
#X connect 59 0 51 0;
#X connect 60 0 61 1;
#X connect 62 0 60 0;
#X connect 63 0 64 7;
#X connect 63 0 66 0;
#X connect 64 0 65 0;
#X connect 65 0 50 0;
